<?xml version="1.0" encoding="UTF-8"?>
<svg version="1.1" xmlns="http://www.w3.org/2000/svg" width="581" height="225">
<path d="M0 0 C191.73 0 383.46 0 581 0 C581 74.25 581 148.5 581 225 C389.27 225 197.54 225 0 225 C0 150.75 0 76.5 0 0 Z " fill="#040615" transform="translate(0,0)"/>
<path d="M0 0 C6.0328125 -0.0928125 6.0328125 -0.0928125 12.1875 -0.1875 C14.07698364 -0.22846802 14.07698364 -0.22846802 16.00463867 -0.27026367 C17.50861206 -0.28150269 17.50861206 -0.28150269 19.04296875 -0.29296875 C20.06414795 -0.3086792 21.08532715 -0.32438965 22.13745117 -0.34057617 C25.48707631 0.05795066 27.30316765 1.00170773 30 3 C32.45485943 6.68228915 32.82932584 9.72454348 32 14 C30.55625961 16.3894658 28.99679341 18.00320659 27 20 C28.2375 20.6496875 28.2375 20.6496875 29.5 21.3125 C32.38896894 24.41814161 32.43526683 25.33284726 32.5625 29.4375 C32.39572739 33.22273298 32.1130185 34.81163584 30.125 38.125 C26.6725509 41.17127862 24.6524149 41.11967192 20.1171875 41.09765625 C19.06644043 41.09515869 18.01569336 41.09266113 16.93310547 41.09008789 C15.59393066 41.08098389 14.25475586 41.07187988 12.875 41.0625 C8.62625 41.041875 4.3775 41.02125 0 41 C0 27.47 0 13.94 0 0 Z " fill="#F7F7F7" transform="translate(158,100)"/>
<path d="M0 0 C2.97 0 5.94 0 9 0 C12.52864812 8.70132548 15.98193111 17.43244143 19.375 26.1875 C19.73271484 27.09588623 20.09042969 28.00427246 20.45898438 28.94018555 C20.95495117 30.22856323 20.95495117 30.22856323 21.4609375 31.54296875 C21.75790527 32.30633545 22.05487305 33.06970215 22.36083984 33.85620117 C23 36 23 36 23 40 C21.35 40 19.7 40 18 40 C17.32845067 38.71086513 16.66291141 37.41859796 16 36.125 C15.62875 35.40570313 15.2575 34.68640625 14.875 33.9453125 C14 32 14 32 14 30 C7.4 30 0.8 30 -6 30 C-6.66 32.31 -7.32 34.62 -8 37 C-8.33 37.99 -8.66 38.98 -9 40 C-10.98 40 -12.96 40 -15 40 C-11.28664304 26.44950442 -6.28464386 12.56928773 0 0 Z " fill="#ECECED" transform="translate(129,101)"/>
<path d="M0 0 C5.36229293 3.17360194 9.04614443 6.86955728 11.0625 12.8125 C11.93568245 20.87346483 11.51361039 27.89015625 7.0625 34.8125 C3.26661156 39.38703222 -0.06188324 41.49585078 -5.98828125 42.1484375 C-12.75214361 42.22944184 -18.50853787 42.21470807 -23.9375 37.8125 C-30.03772539 31.22303347 -30.30212595 25.08222858 -30.2109375 16.30078125 C-29.77775843 10.77465401 -28.35302793 6.99745481 -24.21875 3.2578125 C-17.33573602 -1.90444798 -8.16212533 -3.1891748 0 0 Z M-21.875 7.75 C-25.14774361 14.10297289 -24.97873552 22.5281806 -23.32421875 29.3359375 C-21.73474813 33.10305289 -20.0065011 35.18794861 -16.25 36.875 C-11.70649872 38.16951712 -7.46361619 38.19292361 -2.9375 36.8125 C0.83484684 34.64882985 3.52318794 31.90107999 5.0625 27.8125 C5.455681 24.28174298 5.455681 24.28174298 5.4375 20.4375 C5.48003906 18.50777344 5.48003906 18.50777344 5.5234375 16.5390625 C4.90344291 11.52656387 2.75707641 8.63260059 -0.625 5 C-7.64191094 1.39672141 -16.2041184 2.0791184 -21.875 7.75 Z " fill="#EDEDEE" transform="translate(309.9375,100.1875)"/>
<path d="M0 0 C3.2273746 1.90556006 5.047169 3.74977681 6.4375 7.3125 C6.625 10.125 6.625 10.125 6.4375 12.3125 C4.7875 12.3125 3.1375 12.3125 1.4375 12.3125 C1.045625 11.384375 0.65375 10.45625 0.25 9.5 C-1.77284461 5.94258361 -2.79487001 4.81955199 -6.5625 3.3125 C-10.13535465 2.86411386 -13.47755754 3.06212866 -17 3.875 C-19.59536189 6.26273294 -19.38421314 8.92504965 -19.5625 12.3125 C-19.2325 13.3025 -18.9025 14.2925 -18.5625 15.3125 C-17.32113281 15.49425781 -16.07976562 15.67601563 -14.80078125 15.86328125 C-13.15876661 16.11662065 -11.51684422 16.37055845 -9.875 16.625 C-9.05837891 16.74294922 -8.24175781 16.86089844 -7.40039062 16.98242188 C-1.86990219 17.85565689 2.12185491 19.07670474 6.25 23.0625 C7.98996428 26.35927442 7.88156988 28.63306389 7.4375 32.3125 C5.12794209 36.76053745 2.93474861 39.15730884 -1.5625 41.3125 C-5.12109375 41.7109375 -5.12109375 41.7109375 -9 41.6875 C-10.91619141 41.69910156 -10.91619141 41.69910156 -12.87109375 41.7109375 C-17.44511429 41.2172337 -20.70693069 39.77044732 -24.3125 36.9375 C-26.97967335 33.47017464 -27.5625 30.66137705 -27.5625 26.3125 C-25.5825 26.3125 -23.6025 26.3125 -21.5625 26.3125 C-20.5725 29.2825 -19.5825 32.2525 -18.5625 35.3125 C-9.34702708 36.67251174 -9.34702708 36.67251174 -0.5625 34.3125 C0.81875018 31.54999964 0.62829306 29.36518901 0.4375 26.3125 C-1.8321717 24.0428283 -2.69996791 23.90572848 -5.7734375 23.34765625 C-7.02253906 23.10692383 -7.02253906 23.10692383 -8.296875 22.86132812 C-10.04904127 22.53862886 -11.80164459 22.21829318 -13.5546875 21.90039062 C-21.74979403 20.31322107 -21.74979403 20.31322107 -24.5625 17.3125 C-25.91583858 13.25248425 -26.09964786 9.55746019 -25.5625 5.3125 C-20.53014989 -3.44751686 -8.56157056 -3.91612579 0 0 Z " fill="#ECECED" transform="translate(223.5625,100.6875)"/>
<path d="M0 0 C3.89053755 2.30641572 6.41574655 5.26899311 8.4375 9.3125 C8.477492 11.31210012 8.48096799 13.31297242 8.4375 15.3125 C6.4575 15.3125 4.4775 15.3125 2.4375 15.3125 C2.26734375 14.76980469 2.0971875 14.22710937 1.921875 13.66796875 C0.86539898 10.54911668 -0.05779353 7.91426541 -2.1875 5.375 C-7.33775783 3.07093729 -11.96751139 2.86799498 -17.375 4.375 C-21.30986292 6.76677942 -22.72638625 8.05271611 -24.5625 12.3125 C-25.37348432 19.47312288 -25.36434994 26.06660367 -21.5625 32.3125 C-18.66168771 35.6595911 -15.12139799 36.03951466 -10.87890625 36.375 C-7.04211949 36.27147793 -4.87065762 35.29739457 -1.5625 33.3125 C0.94304193 30.13881355 1.86926154 27.29016921 2.4375 23.3125 C4.4175 23.3125 6.3975 23.3125 8.4375 23.3125 C9.16608142 29.14115136 7.84257612 31.87721413 4.3359375 36.515625 C-1.19520642 41.7508641 -6.889817 41.83607248 -14.140625 41.66015625 C-18.66544613 41.20044269 -22.03314156 40.21798195 -25.5625 37.3125 C-27.9375 34.3125 -27.9375 34.3125 -29.5625 31.3125 C-29.91957031 30.74273437 -30.27664062 30.17296875 -30.64453125 29.5859375 C-31.95741881 26.33444577 -31.8645381 23.43177493 -31.875 19.9375 C-31.89175781 18.65101562 -31.90851563 17.36453125 -31.92578125 16.0390625 C-31.34215049 10.0521405 -29.12468694 6.32774397 -24.5625 2.5 C-23.881875 1.91605469 -23.20125 1.33210938 -22.5 0.73046875 C-16.62347003 -3.57029815 -6.3882055 -2.98919805 0 0 Z " fill="#EAEBEC" transform="translate(266.5625,100.6875)"/>
<path d="M0 0 C10.23 0 20.46 0 31 0 C31 1.32 31 2.64 31 4 C22.75 4 14.5 4 6 4 C6 8.62 6 13.24 6 18 C13.59 18 21.18 18 29 18 C29 19.32 29 20.64 29 22 C21.41 22 13.82 22 6 22 C6 26.95 6 31.9 6 37 C14.25 37 22.5 37 31 37 C31 38.32 31 39.64 31 41 C20.77 41 10.54 41 0 41 C0 27.47 0 13.94 0 0 Z " fill="#F4F4F5" transform="translate(396,100)"/>
<path d="M0 0 C11.55 0 23.1 0 35 0 C35 1.32 35 2.64 35 4 C30.38 4 25.76 4 21 4 C21 16.21 21 28.42 21 41 C19.02 41 17.04 41 15 41 C15 28.79 15 16.58 15 4 C10.05 4 5.1 4 0 4 C0 2.68 0 1.36 0 0 Z " fill="#EDEEEE" transform="translate(83,100)"/>
<path d="M0 0 C0 1.32 0 2.64 0 4 C-1.98 4.66 -3.96 5.32 -6 6 C-6.04898437 7.12019531 -6.09796875 8.24039063 -6.1484375 9.39453125 C-6.22347856 10.86721203 -6.29902582 12.33986707 -6.375 13.8125 C-6.42140625 14.91948242 -6.42140625 14.91948242 -6.46875 16.04882812 C-6.67346148 19.81893115 -6.86433827 21.79650741 -9 25 C-9.66 25 -10.32 25 -11 25 C-10.35546875 25.65355469 -9.7109375 26.30710937 -9.046875 26.98046875 C-6.41093217 30.86898747 -6.34020354 33.7244201 -6.25 38.3125 C-6.22035156 39.05306641 -6.19070313 39.79363281 -6.16015625 40.55664062 C-6.08994155 42.37052046 -6.04264952 44.18526278 -6 46 C-4.02 46.66 -2.04 47.32 0 48 C0 49.32 0 50.64 0 52 C-6.33830846 52.36567164 -6.33830846 52.36567164 -9.375 50.6875 C-12.77889071 47.15269041 -12.31578895 42.4433877 -12.5625 37.8125 C-12.60568359 37.06291016 -12.64886719 36.31332031 -12.69335938 35.54101562 C-12.79922685 33.69421625 -12.9000976 31.84713166 -13 30 C-14.98 29.34 -16.96 28.68 -19 28 C-19 26.68 -19 25.36 -19 24 C-15.535 23.505 -15.535 23.505 -12 23 C-12.05800781 21.75863281 -12.11601562 20.51726562 -12.17578125 19.23828125 C-12.22269238 17.59639186 -12.26819109 15.95446168 -12.3125 14.3125 C-12.35439453 13.49587891 -12.39628906 12.67925781 -12.43945312 11.83789062 C-12.52857327 7.43535527 -12.43010078 5.57739556 -9.71875 1.9375 C-6.28021683 -0.51294893 -4.13168618 -0.40506727 0 0 Z " fill="#8D65EE" transform="translate(345,93)"/>
<path d="M0 0 C2.7302389 -0.1083667 5.45614543 -0.18746694 8.1875 -0.25 C8.95642578 -0.28351563 9.72535156 -0.31703125 10.51757812 -0.3515625 C14.50993369 -0.42010079 16.51744638 -0.2935378 20.01171875 1.83203125 C22 4 22 4 22.625 6.9375 C21.77353332 11.10968671 20.35757841 12.40451786 17 15 C14.03261597 15.59325989 11.19827416 15.4765405 8.1875 15.3125 C7.39923828 15.28994141 6.61097656 15.26738281 5.79882812 15.24414062 C3.86506071 15.18554161 1.93227833 15.09586827 0 15 C0 10.05 0 5.1 0 0 Z " fill="#0B0D1C" transform="translate(163,122)"/>
<path d="M0 0 C2.75059381 -0.08107646 5.49879021 -0.14052813 8.25 -0.1875 C9.02730469 -0.21263672 9.80460938 -0.23777344 10.60546875 -0.26367188 C14.07793528 -0.30819068 16.38935846 -0.31480278 19.515625 1.296875 C21 3 21 3 21.5 6.4375 C21 10 21 10 19.515625 12.20703125 C15.82925808 14.83442631 12.65526089 14.43994491 8.25 14.25 C7.06083984 14.22292969 7.06083984 14.22292969 5.84765625 14.1953125 C3.89791652 14.14833082 1.94880122 14.07659044 0 14 C0 9.38 0 4.76 0 0 Z " fill="#0C0E1C" transform="translate(163,104)"/>
<path d="M0 0 C2.296875 0.140625 2.296875 0.140625 5 1 C6.765625 3.546875 6.765625 3.546875 8.25 6.75 C8.75015625 7.79671875 9.2503125 8.8434375 9.765625 9.921875 C14.33228952 21.30963335 12.57932729 33.90750789 8 45 C6.79987564 47.22590633 5.58388733 49.02014084 4 51 C2.68 50.67 1.36 50.34 0 50 C0.52400391 48.78763672 0.52400391 48.78763672 1.05859375 47.55078125 C1.74115234 45.94783203 1.74115234 45.94783203 2.4375 44.3125 C2.88996094 43.25675781 3.34242188 42.20101562 3.80859375 41.11328125 C9.1831802 27.06887011 5.41573038 13.31976932 0 0 Z " fill="#8D65ED" transform="translate(379,93)"/>
<path d="M0 0 C2.82321865 2.82321865 3.77294537 6.25978203 5.125 9.9375 C5.40214844 10.66646484 5.67929688 11.39542969 5.96484375 12.14648438 C7.10821193 15.21893433 8 17.69539373 8 21 C3.05 21 -1.9 21 -7 21 C-5.87275693 13.10929853 -5.87275693 13.10929853 -4.0625 8.8125 C-3.72347656 7.99394531 -3.38445312 7.17539063 -3.03515625 6.33203125 C-2.08269164 4.18629023 -1.07081053 2.08880081 0 0 Z " fill="#101220" transform="translate(133,106)"/>
</svg>
